STARTFONT 2.1
COMMENT 97.1.21  Created by Toru TOMABECHI <Toru.Tomabechi@orient.unil.ch>.
COMMENT The glyphs are taken, using PS2PK and PK2BM, from TibMdxA type 1 font,
COMMENT originally designed by Christopher FYNN <cfynn@sahaja.demon.co.uk>.
COMMENT Slight modification has been made using XMBDFED and glyphs have
COMMENT been re-ordered.
COMMENT 
COMMENT Original glyph design: (C) Christopher FYNN 1993-1994.
COMMENT Many thanks to Chris for kindly permitting its
COMMENT non-commercial use for our implementation.
COMMENT 
COMMENT 97.03.13 Additional glyphs by T. TOMABECHI
COMMENT 97.06.19 CHARSET_REGISTRY field changed by K. Handa <handa@etl.go.jp>
FONT -TibMdXA-fixed-medium-r-normal--16-160-72-72-m-160-MuleTibetan-0
SIZE 16 72 72
FONTBOUNDINGBOX 16 19 0 -3
STARTPROPERTIES 23
FOUNDRY "misc"
FAMILY_NAME "fixed"
WEIGHT_NAME "medium"
SLANT "r"
SETWIDTH_NAME "normal"
ADD_STYLE_NAME ""
PIXEL_SIZE 16
POINT_SIZE 160
RESOLUTION_X 72
RESOLUTION_Y 72
SPACING "m"
AVERAGE_WIDTH 160
CHARSET_REGISTRY "MuleTibetan"
CHARSET_ENCODING "0"
STRIKEOUT_ASCENT 20
STRIKEOUT_DESCENT 6
X_HEIGHT 8
FACE_NAME "Mule Tibetan (24dots)"
COPYRIGHT "Original design (C) Christopher FYNN 1993-1994"
FONT_ASCENT 20
FONT_DESCENT 6
DEFAULT_CHAR 8481
_XMBDFED_INFO "Edited with xmbdfed 1.6."
ENDPROPERTIES
CHARS 279
STARTCHAR space
ENCODING 8481
SWIDTH 1000 0
DWIDTH 16 0
BBX 16 16 0 -2
BITMAP
FFFF
8001
8001
8001
8001
8001
8001
8001
8001
8001
8001
8001
8001
8001
8001
FFFF
ENDCHAR
STARTCHAR OM
ENCODING 8496
SWIDTH 1000 0
DWIDTH 16 0
BBX 16 15 0 1
BITMAP
01E0
0330
01E0
000E
1E3C
0760
0080
0000
E7C7
47C3
8E33
831B
C30F
7C07
0003
ENDCHAR
STARTCHAR TIBETAN MARK GTER YIG MGO TRUNCATED A
ENCODING 8497
SWIDTH 1000 0
DWIDTH 16 0
BBX 15 14 1 2
BITMAP
01E0
0330
0330
05E8
0210
01E0
0000
E7C0
47C0
8E20
8310
C308
7C04
0002
ENDCHAR
STARTCHAR char8498
ENCODING 8498
SWIDTH 1000 0
DWIDTH 16 0
BBX 16 18 0 -2
BITMAP
0F00
1980
1980
2F40
109E
0F33
0033
001E
0000
3F00
421E
6F33
00B3
001E
C1E0
3030
0E10
01E0
ENDCHAR
STARTCHAR char8499
ENCODING 8499
SWIDTH 1000 0
DWIDTH 16 0
BBX 16 18 0 -2
BITMAP
0F00
1980
1980
2F5E
10B3
0F33
001E
0000
003F
3F00
421E
6F33
00B3
001E
C1E0
3030
0E10
01E0
ENDCHAR
STARTCHAR char8500
ENCODING 8500
SWIDTH 1000 0
DWIDTH 16 0
BBX 16 9 0 3
BITMAP
007C
E187
1181
08F1
C606
21F8
1803
070C
01F0
ENDCHAR
STARTCHAR char8501
ENCODING 8501
SWIDTH 1000 0
DWIDTH 16 0
BBX 14 9 0 3
BITMAP
03E0
0C38
0C0C
C78C
3030
0FC0
C01C
3860
0F80
ENDCHAR
STARTCHAR char8502
ENCODING 8502
SWIDTH 1000 0
DWIDTH 16 0
BBX 16 16 0 -3
BITMAP
007C
E187
1181
08F1
C606
21F8
1803
070C
01F0
0000
01F0
0000
00E0
0040
0040
0040
ENDCHAR
STARTCHAR char8503
ENCODING 8503
SWIDTH 1000 0
DWIDTH 16 0
BBX 16 9 0 4
BITMAP
0011
0391
06D5
E455
1051
08D1
0795
0015
0011
ENDCHAR
STARTCHAR char8504
ENCODING 8504
SWIDTH 1000 0
DWIDTH 16 0
BBX 9 15 2 -3
BITMAP
7880
CD80
0600
C180
3600
C980
3600
0800
1800
1800
1800
0800
0800
0800
0800
ENDCHAR
STARTCHAR char8505
ENCODING 8505
SWIDTH 1000 0
DWIDTH 16 0
BBX 13 12 1 0
BITMAP
07F0
3838
C018
0060
0F80
0060
0F10
1990
0040
0040
0020
0020
ENDCHAR
STARTCHAR char8506
ENCODING 8506
SWIDTH 1000 0
DWIDTH 16 0
BBX 15 18 0 -3
BITMAP
C000
C000
8000
81FC
8E0E
B006
8018
83E0
8018
83C4
8664
8010
C010
4008
4008
3000
1C04
07FC
ENDCHAR
STARTCHAR TIBETAN MARK INTERSYLLABIC TSHEG
ENCODING 8507
SWIDTH 1000 0
DWIDTH 16 0
BBX 5 3 2 9
BITMAP
F8
70
20
ENDCHAR
STARTCHAR TIBETAN MARK SHAD
ENCODING 8509
SWIDTH 1000 0
DWIDTH 16 0
BBX 3 15 2 -3
BITMAP
E0
60
60
60
60
60
60
60
60
60
20
20
20
20
20
ENDCHAR
STARTCHAR TIBETAN MARK NYIS SHAD
ENCODING 8510
SWIDTH 1000 0
DWIDTH 16 0
BBX 12 15 2 -3
BITMAP
E070
E030
6030
6030
6030
6030
6030
6030
6030
6030
2010
2010
2010
2010
2010
ENDCHAR
STARTCHAR char8511
ENCODING 8511
SWIDTH 1000 0
DWIDTH 16 0
BBX 3 15 2 -3
BITMAP
E0
E0
00
00
E0
60
60
60
60
60
20
20
20
20
20
ENDCHAR
STARTCHAR TIBETAN MARK NYIS TSHEG SHAD
ENCODING 8512
SWIDTH 1000 0
DWIDTH 16 0
BBX 6 15 3 -3
BITMAP
7C
F8
00
78
00
30
30
30
10
10
10
10
10
10
10
ENDCHAR
STARTCHAR TIBETAN MARK RIN CHEN SPUNGS SHAD
ENCODING 8513
SWIDTH 1000 0
DWIDTH 16 0
BBX 7 15 2 -3
BITMAP
C6
C6
10
38
10
00
38
18
18
18
08
08
08
08
08
ENDCHAR
STARTCHAR char8514
ENCODING 8514
SWIDTH 1000 0
DWIDTH 16 0
BBX 15 17 1 -3
BITMAP
0100
0100
0380
0440
0380
0820
07C0
0000
F55E
0000
07C0
0000
0380
0100
0100
0100
0100
ENDCHAR
STARTCHAR char8515
ENCODING 8515
SWIDTH 1000 0
DWIDTH 16 0
BBX 16 15 0 -3
BITMAP
0180
0180
0000
07E0
0810
1008
D00B
D00B
1008
1008
0810
07E0
0000
0180
0180
ENDCHAR
STARTCHAR TIBETAN MARK GTER TSHEG
ENCODING 8516
SWIDTH 1000 0
DWIDTH 16 0
BBX 6 9 1 3
BITMAP
78
CC
78
00
FC
00
78
CC
78
ENDCHAR
STARTCHAR char8517
ENCODING 8517
SWIDTH 1000 0
DWIDTH 16 0
BBX 13 16 1 -3
BITMAP
FFF8
8008
F8F8
8008
9DC8
8008
8008
FFF8
8008
8088
E048
3C28
0718
01E8
0038
0008
ENDCHAR
STARTCHAR char8518
ENCODING 8518
SWIDTH 1000 0
DWIDTH 16 0
BBX 13 18 2 -3
BITMAP
FE00
8200
BE00
A000
BFF8
8008
FEF8
0280
0280
FE80
8080
FF80
0000
FFF8
0200
FFF8
8008
FFF8
ENDCHAR
STARTCHAR char8519
ENCODING 8519
SWIDTH 1000 0
DWIDTH 16 0
BBX 15 12 1 1
BITMAP
0248
06D8
0492
15FC
1788
54C8
5C50
5C70
7660
63C0
FF00
8000
ENDCHAR
STARTCHAR char8520
ENCODING 8520
SWIDTH 1000 0
DWIDTH 16 0
BBX 13 12 3 -3
BITMAP
0008
0388
04D8
0450
03F0
38C0
4C80
4580
3F00
0C00
3000
C000
ENDCHAR
STARTCHAR char8521
ENCODING 8521
SWIDTH 1000 0
DWIDTH 16 0
BBX 5 7 6 -3
BITMAP
F8
70
20
20
20
20
20
ENDCHAR
STARTCHAR char8522
ENCODING 8522
SWIDTH 1000 0
DWIDTH 16 0
BBX 4 5 6 6
BITMAP
60
90
90
90
60
ENDCHAR
STARTCHAR char8523
ENCODING 8523
SWIDTH 1000 0
DWIDTH 16 0
BBX 12 5 2 6
BITMAP
6060
9090
9090
9090
6060
ENDCHAR
STARTCHAR char8524
ENCODING 8524
SWIDTH 1000 0
DWIDTH 16 0
BBX 12 11 2 1
BITMAP
0600
0900
0900
0900
0600
0000
6060
9090
9090
9090
6060
ENDCHAR
STARTCHAR char8525
ENCODING 8525
SWIDTH 1000 0
DWIDTH 16 0
BBX 12 12 2 0
BITMAP
0030
E070
70C0
3180
1B00
0E00
0E00
1B00
3180
60C0
C060
0020
ENDCHAR
STARTCHAR char8526
ENCODING 8526
SWIDTH 1000 0
DWIDTH 16 0
BBX 15 7 1 5
BITMAP
C6C6
6C6C
3838
3030
7878
CCCC
8484
ENDCHAR
STARTCHAR char8527
ENCODING 8527
SWIDTH 1000 0
DWIDTH 16 0
BBX 14 7 1 6
BITMAP
018C
70D8
8870
8860
88F0
7198
0108
ENDCHAR
STARTCHAR TIBETAN DIGIT ZERO
ENCODING 8528
SWIDTH 1000 0
DWIDTH 16 0
BBX 16 7 0 5
BITMAP
07C0
1820
6010
4030
4060
31C0
0F00
ENDCHAR
STARTCHAR TIBETAN DIGIT ONE
ENCODING 8529
SWIDTH 1000 0
DWIDTH 16 0
BBX 16 8 0 4
BITMAP
0F80
70C0
70C0
38C0
0080
0300
1C00
2000
ENDCHAR
STARTCHAR TIBETAN DIGIT TWO
ENCODING 8530
SWIDTH 1000 0
DWIDTH 16 0
BBX 16 8 0 4
BITMAP
03F8
1C1C
600C
0030
07C0
0030
0008
0008
ENDCHAR
STARTCHAR TIBETAN DIGIT THREE
ENCODING 8531
SWIDTH 1000 0
DWIDTH 16 0
BBX 16 9 0 3
BITMAP
07E0
1C30
0030
07C0
0030
0070
7F80
00C0
0020
ENDCHAR
STARTCHAR TIBETAN DIGIT FOUR
ENCODING 8532
SWIDTH 1000 0
DWIDTH 16 0
BBX 16 8 0 4
BITMAP
0F80
7180
6180
30F8
1800
0C00
0380
0078
ENDCHAR
STARTCHAR TIBETAN DIGIT FIVE
ENCODING 8533
SWIDTH 1000 0
DWIDTH 16 0
BBX 16 7 0 5
BITMAP
2000
6040
6040
C0C0
C080
EF80
3070
ENDCHAR
STARTCHAR TIBETAN DIGIT SIX
ENCODING 8534
SWIDTH 1000 0
DWIDTH 16 0
BBX 16 7 0 5
BITMAP
0F80
9000
9800
C700
C0C0
60C0
1F00
ENDCHAR
STARTCHAR TIBETAN DIGIT SEVEN
ENCODING 8535
SWIDTH 1000 0
DWIDTH 16 0
BBX 16 7 0 5
BITMAP
0001
0F83
18E3
3063
20C3
0186
03FC
ENDCHAR
STARTCHAR TIBETAN DIGIT EIGHT
ENCODING 8536
SWIDTH 1000 0
DWIDTH 16 0
BBX 16 8 0 4
BITMAP
0300
0600
1800
7800
0600
0180
0040
0040
ENDCHAR
STARTCHAR TIBETAN DIGIT NINE
ENCODING 8537
SWIDTH 1000 0
DWIDTH 16 0
BBX 16 9 0 3
BITMAP
07C0
1830
3010
63E0
6400
6600
61F0
6000
4000
ENDCHAR
STARTCHAR char8538
ENCODING 8538
SWIDTH 1000 0
DWIDTH 16 0
BBX 15 9 1 3
BITMAP
03E0
1C30
1830
3FFC
C822
00C6
070C
0800
1000
ENDCHAR
STARTCHAR char8539
ENCODING 8539
SWIDTH 1000 0
DWIDTH 16 0
BBX 16 8 0 4
BITMAP
07F8
181C
7FFF
D031
07C3
0030
0010
0008
ENDCHAR
STARTCHAR char8540
ENCODING 8540
SWIDTH 1000 0
DWIDTH 16 0
BBX 16 10 0 2
BITMAP
07E0
1C30
0060
3FFE
C821
0073
7FE0
00C0
0020
0010
ENDCHAR
STARTCHAR char8541
ENCODING 8541
SWIDTH 1000 0
DWIDTH 16 0
BBX 16 8 0 4
BITMAP
0F80
3180
3FFE
F0C3
1872
0C00
0380
0078
ENDCHAR
STARTCHAR char8542
ENCODING 8542
SWIDTH 1000 0
DWIDTH 16 0
BBX 16 8 0 4
BITMAP
0800
1810
1810
3FFE
F821
1BE3
0C30
0010
ENDCHAR
STARTCHAR char8543
ENCODING 8543
SWIDTH 1000 0
DWIDTH 16 0
BBX 15 7 1 5
BITMAP
23E0
2400
3FFC
F1C2
3036
1830
07C0
ENDCHAR
STARTCHAR char8544
ENCODING 8544
SWIDTH 1000 0
DWIDTH 16 0
BBX 16 7 0 5
BITMAP
0008
1E18
3398
7FFE
E319
4633
0FE0
ENDCHAR
STARTCHAR char8545
ENCODING 8545
SWIDTH 1000 0
DWIDTH 16 0
BBX 16 8 0 4
BITMAP
00C0
0180
1FFE
7E01
8183
0060
0010
0010
ENDCHAR
STARTCHAR char8546
ENCODING 8546
SWIDTH 1000 0
DWIDTH 16 0
BBX 16 9 0 3
BITMAP
03E0
0C18
1FFE
F1F1
3203
3300
30F8
3000
2000
ENDCHAR
STARTCHAR char8547
ENCODING 8547
SWIDTH 1000 0
DWIDTH 16 0
BBX 16 7 0 5
BITMAP
03E0
0C10
3FFE
E019
2033
18E0
0780
ENDCHAR
STARTCHAR char8548
ENCODING 8548
SWIDTH 1000 0
DWIDTH 16 0
BBX 7 11 4 1
BITMAP
FE
7C
38
10
00
7E
FC
00
00
7E
FC
ENDCHAR
STARTCHAR TIBETAN MARK NGAS BZUNG NYI ZLA
ENCODING 8549
SWIDTH 1000 0
DWIDTH 16 0
BBX 8 6 5 -1
BITMAP
3C
66
66
BD
42
3C
ENDCHAR
STARTCHAR char8550
ENCODING 8550
SWIDTH 1000 0
DWIDTH 16 0
BBX 14 12 1 0
BITMAP
0300
0300
0000
0000
0000
C00C
C00C
0000
0000
0000
0300
0300
ENDCHAR
STARTCHAR char8551
ENCODING 8551
SWIDTH 1000 0
DWIDTH 16 0
BBX 6 3 6 0
BITMAP
78
CC
78
ENDCHAR
STARTCHAR char8552
ENCODING 8552
SWIDTH 1000 0
DWIDTH 16 0
BBX 12 7 2 5
BITMAP
0010
3C30
6730
C330
8630
0C60
1FC0
ENDCHAR
STARTCHAR char8553
ENCODING 8553
SWIDTH 1000 0
DWIDTH 16 0
BBX 4 3 12 12
BITMAP
30
F0
80
ENDCHAR
STARTCHAR char8554
ENCODING 8554
SWIDTH 1000 0
DWIDTH 16 0
BBX 16 9 0 3
BITMAP
0006
0709
0886
C8B0
24C8
1130
0E06
0009
0006
ENDCHAR
STARTCHAR char8555
ENCODING 8555
SWIDTH 1000 0
DWIDTH 16 0
BBX 16 9 0 3
BITMAP
6000
90E0
6110
0D13
1324
0C88
6070
9000
6000
ENDCHAR
STARTCHAR TIBETAN MARK ANG KHANG GYON
ENCODING 8556
SWIDTH 1000 0
DWIDTH 16 0
BBX 16 16 0 0
BITMAP
0003
000E
0018
03F0
1C00
3000
6000
6000
6000
6000
6000
6000
6000
6000
6000
C000
ENDCHAR
STARTCHAR TIBETAN MARK ANG KHANG GYAS
ENCODING 8557
SWIDTH 1000 0
DWIDTH 16 0
BBX 16 16 0 0
BITMAP
C000
7000
1800
0FC0
0038
000C
0006
0006
0006
0006
0006
0006
0006
0006
0006
0003
ENDCHAR
STARTCHAR char8558
ENCODING 8558
SWIDTH 1000 0
DWIDTH 16 0
BBX 7 10 9 -3
BITMAP
0E
38
60
C0
80
80
80
80
80
80
ENDCHAR
STARTCHAR char8559
ENCODING 8559
SWIDTH 1000 0
DWIDTH 16 0
BBX 7 10 0 -3
BITMAP
E0
38
0C
06
02
02
02
02
02
02
ENDCHAR
STARTCHAR TIBETAN LETTER KA
ENCODING 8737
SWIDTH 1000 0
DWIDTH 16 0
BBX 16 11 0 1
BITMAP
3FFF
0887
08C3
1043
2043
0043
0003
0001
0001
0001
0001
ENDCHAR
STARTCHAR TIBETAN LETTER KHA
ENCODING 8738
SWIDTH 1000 0
DWIDTH 16 0
BBX 16 11 0 1
BITMAP
3FFF
4083
4103
4103
43F1
400D
4003
4000
4000
4000
4000
ENDCHAR
STARTCHAR TIBETAN LETTER GA
ENCODING 8739
SWIDTH 1000 0
DWIDTH 16 0
BBX 16 11 0 1
BITMAP
3FFF
18C3
1043
2043
3F43
00C3
0003
0001
0001
0001
0001
ENDCHAR
STARTCHAR TIBETAN LETTER GHA
ENCODING 8740
SWIDTH 1000 0
DWIDTH 16 0
BBX 16 14 0 -2
BITMAP
3FFF
10C2
2042
3042
0F42
00C2
0002
0FF8
0C00
10E0
1B18
0708
0010
0020
ENDCHAR
STARTCHAR TIBETAN LETTER NGA
ENCODING 8741
SWIDTH 1000 0
DWIDTH 16 0
BBX 16 7 0 5
BITMAP
1FFF
0C00
0800
1000
1FE0
001C
0002
ENDCHAR
STARTCHAR TIBETAN LETTER CA
ENCODING 8742
SWIDTH 1000 0
DWIDTH 16 0
BBX 16 7 0 5
BITMAP
01FF
0010
0010
043C
03C3
0183
007C
ENDCHAR
STARTCHAR TIBETAN LETTER CHA
ENCODING 8743
SWIDTH 1000 0
DWIDTH 16 0
BBX 16 7 0 5
BITMAP
0FFE
0040
0040
07FE
1841
1861
079E
ENDCHAR
STARTCHAR TIBETAN LETTER JA
ENCODING 8744
SWIDTH 1000 0
DWIDTH 16 0
BBX 16 7 0 5
BITMAP
07FF
0300
0200
07FC
0400
07FC
0002
ENDCHAR
STARTCHAR RESERVED
ENCODING 8745
SWIDTH 1000 0
DWIDTH 16 0
BBX 14 15 1 0
BITMAP
FFFC
FFFC
FFFC
FFFC
FFFC
FFFC
FFFC
FFFC
FFFC
FFFC
FFFC
FFFC
FFFC
FFFC
FFFC
ENDCHAR
STARTCHAR TIBETAN LETTER NYA
ENCODING 8746
SWIDTH 1000 0
DWIDTH 16 0
BBX 16 11 0 1
BITMAP
01F8
060C
0810
08EF
0103
0082
0004
0008
0018
0010
0020
ENDCHAR
STARTCHAR TIBETAN LETTER TTA
ENCODING 8747
SWIDTH 1000 0
DWIDTH 16 0
BBX 16 11 0 1
BITMAP
0FFF
0002
0002
07FA
0C04
0E04
0600
0300
0100
0080
0080
ENDCHAR
STARTCHAR TIBETAN LETTER TTHA
ENCODING 8748
SWIDTH 1000 0
DWIDTH 16 0
BBX 16 7 0 5
BITMAP
0FFE
0402
07FD
0402
0402
04FF
0700
ENDCHAR
STARTCHAR TIBETAN LETTER DDA
ENCODING 8749
SWIDTH 1000 0
DWIDTH 16 0
BBX 16 11 0 1
BITMAP
0FFE
0004
0002
0002
00FF
0380
0600
0400
0800
0800
0800
ENDCHAR
STARTCHAR TIBETAN LETTER DDHA
ENCODING 8750
SWIDTH 1000 0
DWIDTH 16 0
BBX 16 14 0 -2
BITMAP
03FF
0006
0002
03FF
0700
0400
0400
03FF
0100
027E
0783
00E1
0006
0008
ENDCHAR
STARTCHAR TIBETAN LETTER NNA
ENCODING 8751
SWIDTH 1000 0
DWIDTH 16 0
BBX 16 11 0 1
BITMAP
01FF
0030
0020
00FE
0181
0143
037E
0200
0200
0200
0200
ENDCHAR
STARTCHAR TIBETAN LETTER TA
ENCODING 8752
SWIDTH 1000 0
DWIDTH 16 0
BBX 16 11 0 1
BITMAP
0FFE
0C00
0400
04FE
0507
0203
0002
0004
0008
0010
0020
ENDCHAR
STARTCHAR TIBETAN LETTER THA
ENCODING 8753
SWIDTH 1000 0
DWIDTH 16 0
BBX 16 7 0 5
BITMAP
07FF
0401
03FF
0201
0401
07F9
0007
ENDCHAR
STARTCHAR TIBETAN LETTER DA
ENCODING 8754
SWIDTH 1000 0
DWIDTH 16 0
BBX 16 11 0 1
BITMAP
0FFE
0600
0C00
0800
0FC0
0038
000C
0002
0002
0001
0001
ENDCHAR
STARTCHAR TIBETAN LETTER DHA
ENCODING 8755
SWIDTH 1000 0
DWIDTH 16 0
BBX 16 14 0 -2
BITMAP
07FF
0300
0200
07E0
001E
0001
0001
03FE
0300
0438
06C6
01C2
0004
0008
ENDCHAR
STARTCHAR TIBETAN LETTER NA
ENCODING 8756
SWIDTH 1000 0
DWIDTH 16 0
BBX 16 11 0 1
BITMAP
03FE
0060
0020
03F8
040C
061E
03F6
0003
0003
0001
0001
ENDCHAR
STARTCHAR TIBETAN LETTER PA
ENCODING 8757
SWIDTH 1000 0
DWIDTH 16 0
BBX 16 7 0 5
BITMAP
0FC7
0602
0C02
0802
0FE2
001A
0006
ENDCHAR
STARTCHAR TIBETAN LETTER PHA
ENCODING 8758
SWIDTH 1000 0
DWIDTH 16 0
BBX 16 7 0 5
BITMAP
0FC7
0602
0C0E
0872
0FE2
001A
0006
ENDCHAR
STARTCHAR TIBETAN LETTER BA
ENCODING 8759
SWIDTH 1000 0
DWIDTH 16 0
BBX 16 7 0 5
BITMAP
0FFF
0602
0402
0802
0FE2
001A
0006
ENDCHAR
STARTCHAR TIBETAN LETTER BHA
ENCODING 8760
SWIDTH 1000 0
DWIDTH 16 0
BBX 16 14 0 -2
BITMAP
0FFF
0602
0402
0802
0FE2
001A
0006
07FC
0200
0478
0D86
0386
000C
0010
ENDCHAR
STARTCHAR TIBETAN LETTER MA
ENCODING 8761
SWIDTH 1000 0
DWIDTH 16 0
BBX 16 7 0 5
BITMAP
0F87
0302
0102
0FC2
107A
0F8E
0006
ENDCHAR
STARTCHAR TIBETAN LETTER TSA
ENCODING 8762
SWIDTH 1000 0
DWIDTH 16 0
BBX 13 9 3 5
BITMAP
0038
0040
3FE0
0200
0200
BF80
4060
3020
0FC0
ENDCHAR
STARTCHAR TIBETAN LETTER TSHA
ENCODING 8763
SWIDTH 1000 0
DWIDTH 16 0
BBX 13 9 3 5
BITMAP
0038
0040
FFE0
0400
0400
7FE0
8410
8410
FBE0
ENDCHAR
STARTCHAR TIBETAN LETTER DZA
ENCODING 8764
SWIDTH 1000 0
DWIDTH 16 0
BBX 14 9 2 5
BITMAP
003C
0020
7FE0
6000
4000
BF00
8000
FF80
0040
ENDCHAR
STARTCHAR TIBETAN LETTER DZHA
ENCODING 8765
SWIDTH 1000 0
DWIDTH 16 0
BBX 15 16 1 -2
BITMAP
001E
0010
3FF0
3000
2000
5F80
4000
7FC0
0020
7FC0
6000
8700
D8C0
3840
0080
0100
ENDCHAR
STARTCHAR TIBETAN LETTER WA
ENCODING 8766
SWIDTH 1000 0
DWIDTH 16 0
BBX 16 8 0 4
BITMAP
0F87
30C3
4083
67FF
2203
0FE3
007D
0003
ENDCHAR
STARTCHAR TIBETAN LETTER ZHA
ENCODING 8767
SWIDTH 1000 0
DWIDTH 16 0
BBX 16 11 0 1
BITMAP
03FE
0C02
11FA
111C
110E
18F2
0802
0001
0001
0001
0001
ENDCHAR
STARTCHAR TIBETAN LETTER ZA
ENCODING 8768
SWIDTH 1000 0
DWIDTH 16 0
BBX 16 7 0 5
BITMAP
07FF
0003
03FF
0001
0001
07F1
000F
ENDCHAR
STARTCHAR TIBETAN LETTER -A
ENCODING 8769
SWIDTH 1000 0
DWIDTH 16 0
BBX 16 7 0 5
BITMAP
1FE0
6030
4020
8040
C7E0
401C
0002
ENDCHAR
STARTCHAR TIBETAN LETTER YA
ENCODING 8770
SWIDTH 1000 0
DWIDTH 16 0
BBX 16 7 0 5
BITMAP
19C3
1083
2083
21C3
1E31
000D
0003
ENDCHAR
STARTCHAR TIBETAN LETTER RA
ENCODING 8771
SWIDTH 1000 0
DWIDTH 16 0
BBX 16 7 0 5
BITMAP
1FFC
0180
0080
1FE0
003C
0006
0003
ENDCHAR
STARTCHAR TIBETAN LETTER LA
ENCODING 8772
SWIDTH 1000 0
DWIDTH 16 0
BBX 16 7 0 5
BITMAP
1FC7
20E3
4043
8183
C7F3
401B
0007
ENDCHAR
STARTCHAR TIBETAN LETTER SHA
ENCODING 8773
SWIDTH 1000 0
DWIDTH 16 0
BBX 16 11 0 1
BITMAP
01FF
0206
0406
0BFE
3C06
0302
0102
0002
0002
0002
0002
ENDCHAR
STARTCHAR TIBETAN LETTER SSA
ENCODING 8774
SWIDTH 1000 0
DWIDTH 16 0
BBX 16 11 0 1
BITMAP
3FE0
1810
1808
1FF8
100F
1030
1020
1000
1000
1000
1000
ENDCHAR
STARTCHAR TIBETAN LETTER SA
ENCODING 8775
SWIDTH 1000 0
DWIDTH 16 0
BBX 16 7 0 5
BITMAP
1F87
1B03
20C3
3C33
071B
0087
0003
ENDCHAR
STARTCHAR TIBETAN LETTER HA
ENCODING 8776
SWIDTH 1000 0
DWIDTH 16 0
BBX 16 11 0 1
BITMAP
0FFE
0600
0400
08FE
0F83
0043
0006
0004
0008
0010
0020
ENDCHAR
STARTCHAR TIBETAN LETTER A
ENCODING 8777
SWIDTH 1000 0
DWIDTH 16 0
BBX 16 7 0 5
BITMAP
E7C7
47C3
8E33
831B
C30F
7C07
0003
ENDCHAR
STARTCHAR TIBETAN LETTER KSSA
ENCODING 8778
SWIDTH 1000 0
DWIDTH 16 0
BBX 16 13 0 -1
BITMAP
1FFF
04C3
0843
3043
0043
0043
1F81
1861
1060
1FA0
1078
1080
1000
ENDCHAR
STARTCHAR RESERVED
ENCODING 8779
SWIDTH 1000 0
DWIDTH 16 0
BBX 14 15 1 0
BITMAP
FFFC
FFFC
FFFC
FFFC
FFFC
FFFC
FFFC
FFFC
FFFC
FFFC
FFFC
FFFC
FFFC
FFFC
FFFC
ENDCHAR
STARTCHAR RESERVED
ENCODING 8780
SWIDTH 1000 0
DWIDTH 16 0
BBX 14 15 1 0
BITMAP
FFFC
FFFC
FFFC
FFFC
FFFC
FFFC
FFFC
FFFC
FFFC
FFFC
FFFC
FFFC
FFFC
FFFC
FFFC
ENDCHAR
STARTCHAR RESERVED
ENCODING 8781
SWIDTH 1000 0
DWIDTH 16 0
BBX 14 15 1 0
BITMAP
FFFC
FFFC
FFFC
FFFC
FFFC
FFFC
FFFC
FFFC
FFFC
FFFC
FFFC
FFFC
FFFC
FFFC
FFFC
ENDCHAR
STARTCHAR RESERVED
ENCODING 8782
SWIDTH 1000 0
DWIDTH 16 0
BBX 14 15 1 0
BITMAP
FFFC
FFFC
FFFC
FFFC
FFFC
FFFC
FFFC
FFFC
FFFC
FFFC
FFFC
FFFC
FFFC
FFFC
FFFC
ENDCHAR
STARTCHAR RESERVED
ENCODING 8783
SWIDTH 1000 0
DWIDTH 16 0
BBX 14 15 1 0
BITMAP
FFFC
FFFC
FFFC
FFFC
FFFC
FFFC
FFFC
FFFC
FFFC
FFFC
FFFC
FFFC
FFFC
FFFC
FFFC
ENDCHAR
STARTCHAR RESERVED
ENCODING 8784
SWIDTH 1000 0
DWIDTH 16 0
BBX 14 15 1 0
BITMAP
FFFC
FFFC
FFFC
FFFC
FFFC
FFFC
FFFC
FFFC
FFFC
FFFC
FFFC
FFFC
FFFC
FFFC
FFFC
ENDCHAR
STARTCHAR DUMMY VOWEL A
ENCODING 8785
SWIDTH 1000 0
DWIDTH 16 0
BBX 0 0 0 0
BITMAP
ENDCHAR
STARTCHAR TIBETAN VOWEL SIGN I
ENCODING 8787
SWIDTH 1000 0
DWIDTH 16 0
BBX 12 4 3 8
BITMAP
7E00
81C0
7830
0010
ENDCHAR
STARTCHAR TIBETAN VOWEL SIGN U
ENCODING 8789
SWIDTH 1000 0
DWIDTH 16 0
BBX 12 4 4 -2
BITMAP
C1E0
3030
0E10
01E0
ENDCHAR
STARTCHAR TIBETAN VOWEL SIGN E
ENCODING 8795
SWIDTH 1000 0
DWIDTH 16 0
BBX 10 4 5 8
BITMAP
FC00
0700
0180
0040
ENDCHAR
STARTCHAR TIBETAN VOWEL SIGN EE
ENCODING 8796
SWIDTH 1000 0
DWIDTH 16 0
BBX 11 5 4 7
BITMAP
7E00
0180
FC40
07A0
0060
ENDCHAR
STARTCHAR TIBETAN VOWEL SIGN O
ENCODING 8797
SWIDTH 1000 0
DWIDTH 16 0
BBX 12 4 4 8
BITMAP
0070
F1E0
3B00
0400
ENDCHAR
STARTCHAR TIBETAN VOWEL SIGN OO
ENCODING 8798
SWIDTH 1000 0
DWIDTH 16 0
BBX 12 6 4 6
BITMAP
0010
E070
1B80
E470
3B80
0400
ENDCHAR
STARTCHAR TIBETAN SIGN RJES SU NGA RO
ENCODING 8799
SWIDTH 1000 0
DWIDTH 16 0
BBX 6 3 8 9
BITMAP
78
CC
78
ENDCHAR
STARTCHAR TIBETAN SIGN RNAM BCAD
ENCODING 8800
SWIDTH 1000 0
DWIDTH 16 0
BBX 6 10 3 2
BITMAP
78
CC
CC
78
00
00
78
CC
CC
78
ENDCHAR
STARTCHAR TIBETAN VOWEL SIGN REVERSED I
ENCODING 8801
SWIDTH 1000 0
DWIDTH 16 0
BBX 11 3 4 9
BITMAP
0F80
3060
C1E0
ENDCHAR
STARTCHAR TIBETAN SIGN NYI ZLA NAA DA
ENCODING 8803
SWIDTH 1000 0
DWIDTH 16 0
BBX 8 7 6 6
BITMAP
08
08
1C
22
9C
41
3E
ENDCHAR
STARTCHAR TIBETAN SIGN SNA LDAN
ENCODING 8804
SWIDTH 1000 0
DWIDTH 16 0
BBX 8 6 6 6
BITMAP
3C
66
66
BD
42
3C
ENDCHAR
STARTCHAR TIBETAN SIGN HALANTA
ENCODING 8805
SWIDTH 1000 0
DWIDTH 16 0
BBX 8 4 8 -2
BITMAP
F0
1C
06
01
ENDCHAR
STARTCHAR TIBETAN SIGN PALUTA
ENCODING 8806
SWIDTH 1000 0
DWIDTH 16 0
BBX 10 14 6 -2
BITMAP
1F00
6180
8200
8D80
1040
0840
0080
0100
0200
0200
0200
0100
00C0
0040
ENDCHAR
STARTCHAR char8807
ENCODING 8807
SWIDTH 1000 0
DWIDTH 16 0
BBX 6 8 6 8
BITMAP
20
20
20
60
CC
84
CC
78
ENDCHAR
STARTCHAR char8808
ENCODING 8808
SWIDTH 1000 0
DWIDTH 16 0
BBX 2 6 9 10
BITMAP
C0
C0
C0
C0
C0
C0
ENDCHAR
STARTCHAR char8809
ENCODING 8809
SWIDTH 1000 0
DWIDTH 16 0
BBX 9 5 5 11
BITMAP
FF80
2200
1C00
2200
FF80
ENDCHAR
STARTCHAR char8810
ENCODING 8810
SWIDTH 1000 0
DWIDTH 16 0
BBX 9 5 6 11
BITMAP
7700
8880
8880
C980
8880
ENDCHAR
STARTCHAR char8811
ENCODING 8811
SWIDTH 1000 0
DWIDTH 16 0
BBX 7 4 6 12
BITMAP
EE
AA
AA
BA
ENDCHAR
STARTCHAR char8812
ENCODING 8812
SWIDTH 1000 0
DWIDTH 16 0
BBX 12 6 3 10
BITMAP
0060
7890
C490
8480
CE80
0180
ENDCHAR
STARTCHAR TIBETAN SUBJOINED LETTER KA
ENCODING 8993
SWIDTH 1000 0
DWIDTH 16 0
BBX 16 8 0 4
BITMAP
3FFF
08C3
3043
0043
0003
0001
0001
0001
ENDCHAR
STARTCHAR TIBETAN SUBJOINED LETTER KHA
ENCODING 8994
SWIDTH 1000 0
DWIDTH 16 0
BBX 16 8 0 4
BITMAP
3FFF
4103
43F3
401D
4003
4000
4000
4000
ENDCHAR
STARTCHAR TIBETAN SUBJOINED LETTER GA
ENCODING 8995
SWIDTH 1000 0
DWIDTH 16 0
BBX 16 8 0 4
BITMAP
3FFF
1043
3E43
01C3
0003
0001
0001
0001
ENDCHAR
STARTCHAR TIBETAN SUBJOINED LETTER GHA
ENCODING 8996
SWIDTH 1000 0
DWIDTH 16 0
BBX 13 11 3 1
BITMAP
7FF8
8108
FD08
0308
0008
3FE0
1000
23C0
7E30
0260
0080
ENDCHAR
STARTCHAR TIBETAN SUBJOINED LETTER NGA
ENCODING 8997
SWIDTH 1000 0
DWIDTH 16 0
BBX 16 5 0 7
BITMAP
1FFF
0800
1FE0
001C
0002
ENDCHAR
STARTCHAR TIBETAN SUBJOINED LETTER CA
ENCODING 8998
SWIDTH 1000 0
DWIDTH 16 0
BBX 16 5 0 7
BITMAP
01FF
0010
07EE
0181
007E
ENDCHAR
STARTCHAR TIBETAN SUBJOINED LETTER CHA
ENCODING 8999
SWIDTH 1000 0
DWIDTH 16 0
BBX 16 5 0 7
BITMAP
0FFE
0040
0FFE
1041
0FBE
ENDCHAR
STARTCHAR TIBETAN SUBJOINED LETTER JA
ENCODING 9000
SWIDTH 1000 0
DWIDTH 16 0
BBX 11 6 5 6
BITMAP
FFE0
4000
FF80
4000
FFC0
0020
ENDCHAR
STARTCHAR RESERVED
ENCODING 9001
SWIDTH 1000 0
DWIDTH 16 0
BBX 14 15 1 0
BITMAP
FFFC
FFFC
FFFC
FFFC
FFFC
FFFC
FFFC
FFFC
FFFC
FFFC
FFFC
FFFC
FFFC
FFFC
FFFC
ENDCHAR
STARTCHAR TIBETAN SUBJOINED LETTER NYA
ENCODING 9002
SWIDTH 1000 0
DWIDTH 16 0
BBX 16 7 0 5
BITMAP
03F8
0C10
00EF
0183
0004
0008
0010
ENDCHAR
STARTCHAR TIBETAN SUBJOINED LETTER TTA
ENCODING 9003
SWIDTH 1000 0
DWIDTH 16 0
BBX 16 7 0 5
BITMAP
0FFF
0002
0FFE
0C04
0600
0100
0080
ENDCHAR
STARTCHAR TIBETAN SUBJOINED LETTER TTHA
ENCODING 9004
SWIDTH 1000 0
DWIDTH 16 0
BBX 16 5 0 7
BITMAP
0FFE
07FD
0402
05FF
0600
ENDCHAR
STARTCHAR TIBETAN SUBJOINED LETTER DDA
ENCODING 9005
SWIDTH 1000 0
DWIDTH 16 0
BBX 12 7 4 5
BITMAP
FFC0
0020
0020
7FF0
C000
8000
8000
ENDCHAR
STARTCHAR TIBETAN SUBJOINED LETTER DDHA
ENCODING 9006
SWIDTH 1000 0
DWIDTH 16 0
BBX 11 11 5 1
BITMAP
7FE0
0040
7FE0
8000
8000
7FC0
2000
4780
FC60
04C0
0100
ENDCHAR
STARTCHAR TIBETAN SUBJOINED LETTER NNA
ENCODING 9007
SWIDTH 1000 0
DWIDTH 16 0
BBX 16 7 0 5
BITMAP
01FF
007E
0081
0181
037E
0200
0200
ENDCHAR
STARTCHAR TIBETAN SUBJOINED LETTER TA
ENCODING 9008
SWIDTH 1000 0
DWIDTH 16 0
BBX 16 7 0 5
BITMAP
0FFE
0C00
05FE
0203
0006
000C
0010
ENDCHAR
STARTCHAR TIBETAN SUBJOINED LETTER THA
ENCODING 9009
SWIDTH 1000 0
DWIDTH 16 0
BBX 11 7 5 5
BITMAP
FFE0
C020
FFE0
2020
C020
FFA0
0060
ENDCHAR
STARTCHAR TIBETAN SUBJOINED LETTER DA
ENCODING 9010
SWIDTH 1000 0
DWIDTH 16 0
BBX 12 7 3 5
BITMAP
3FF0
4000
4000
FFE0
0030
0010
0010
ENDCHAR
STARTCHAR TIBETAN SUBJOINED LETTER DHA
ENCODING 9011
SWIDTH 1000 0
DWIDTH 16 0
BBX 11 12 5 0
BITMAP
3FE0
2000
4000
FF80
0060
0020
7FC0
2000
4780
FC60
04C0
0100
ENDCHAR
STARTCHAR TIBETAN SUBJOINED LETTER NA
ENCODING 9012
SWIDTH 1000 0
DWIDTH 16 0
BBX 11 10 5 2
BITMAP
7FC0
0400
0C00
7E00
C100
C1C0
7E40
0060
0020
0020
ENDCHAR
STARTCHAR TIBETAN SUBJOINED LETTER PA
ENCODING 9013
SWIDTH 1000 0
DWIDTH 16 0
BBX 12 6 4 6
BITMAP
FC70
4020
8020
FE20
03A0
0060
ENDCHAR
STARTCHAR TIBETAN SUBJOINED LETTER PHA
ENCODING 9014
SWIDTH 1000 0
DWIDTH 16 0
BBX 12 6 4 6
BITMAP
FC70
4020
81E0
FF20
03A0
0060
ENDCHAR
STARTCHAR TIBETAN SUBJOINED LETTER BA
ENCODING 9015
SWIDTH 1000 0
DWIDTH 16 0
BBX 12 6 4 6
BITMAP
FFF0
4020
8020
FE20
03A0
0060
ENDCHAR
STARTCHAR TIBETAN SUBJOINED LETTER BHA
ENCODING 9016
SWIDTH 1000 0
DWIDTH 16 0
BBX 11 11 4 1
BITMAP
7FE0
4020
FC20
07E0
0020
7FC0
2000
4780
FC60
04C0
0100
ENDCHAR
STARTCHAR TIBETAN SUBJOINED LETTER MA
ENCODING 9017
SWIDTH 1000 0
DWIDTH 16 0
BBX 12 6 3 6
BITMAP
7C30
1810
7E10
8390
C670
7C10
ENDCHAR
STARTCHAR TIBETAN SUBJOINED LETTER TSA
ENCODING 9018
SWIDTH 1000 0
DWIDTH 16 0
BBX 11 8 5 6
BITMAP
0060
00A0
7F80
0200
0200
DDC0
3060
0F80
ENDCHAR
STARTCHAR TIBETAN SUBJOINED LETTER TSHA
ENCODING 9019
SWIDTH 1000 0
DWIDTH 16 0
BBX 12 8 4 6
BITMAP
0070
00D0
7FC0
0800
0400
FFF0
8610
79E0
ENDCHAR
STARTCHAR TIBETAN SUBJOINED LETTER DZA
ENCODING 9020
SWIDTH 1000 0
DWIDTH 16 0
BBX 11 8 5 6
BITMAP
00E0
00A0
3F80
3000
7F80
8000
FFC0
0020
ENDCHAR
STARTCHAR TIBETAN SUBJOINED LETTER DZHA
ENCODING 9021
SWIDTH 1000 0
DWIDTH 16 0
BBX 11 14 5 0
BITMAP
00E0
00A0
3F80
4000
7F80
8000
FFC0
0020
7FC0
2000
4780
FC60
04C0
0100
ENDCHAR
STARTCHAR TIBETAN SUBJOINED LETTER WA
ENCODING 9022
SWIDTH 1000 0
DWIDTH 16 0
BBX 4 6 12 -2
BITMAP
10
30
50
90
50
30
ENDCHAR
STARTCHAR TIBETAN SUBJOINED LETTER ZHA
ENCODING 9023
SWIDTH 1000 0
DWIDTH 16 0
BBX 12 8 4 4
BITMAP
3FE0
C020
9FE0
D0C0
5F60
0020
0010
0010
ENDCHAR
STARTCHAR TIBETAN SUBJOINED LETTER ZA
ENCODING 9024
SWIDTH 1000 0
DWIDTH 16 0
BBX 11 7 5 5
BITMAP
FFE0
0020
7FE0
0020
FF20
00E0
0020
ENDCHAR
STARTCHAR TIBETAN SUBJOINED LETTER -A
ENCODING 9025
SWIDTH 1000 0
DWIDTH 16 0
BBX 8 4 8 -2
BITMAP
7E
84
DE
01
ENDCHAR
STARTCHAR TIBETAN SUBJOINED LETTER YA
ENCODING 9026
SWIDTH 1000 0
DWIDTH 16 0
BBX 12 5 3 -2
BITMAP
0010
FFE0
4010
7060
1FC0
ENDCHAR
STARTCHAR TIBETAN SUBJOINED LETTER RA
ENCODING 9027
SWIDTH 1000 0
DWIDTH 16 0
BBX 11 4 5 -2
BITMAP
0020
FE20
03A0
0060
ENDCHAR
STARTCHAR TIBETAN SUBJOINED LETTER LA
ENCODING 9028
SWIDTH 1000 0
DWIDTH 16 0
BBX 16 5 0 7
BITMAP
3FE7
4043
8183
C7FB
0007
ENDCHAR
STARTCHAR TIBETAN SUBJOINED LETTER SHA
ENCODING 9029
SWIDTH 1000 0
DWIDTH 16 0
BBX 14 7 2 5
BITMAP
0FFC
1818
17F8
F008
1008
0808
0008
ENDCHAR
STARTCHAR TIBETAN SUBJOINED LETTER SSA
ENCODING 9030
SWIDTH 1000 0
DWIDTH 16 0
BBX 14 8 2 4
BITMAP
FFC0
6060
7FA0
403C
4020
4040
4000
4000
ENDCHAR
STARTCHAR TIBETAN SUBJOINED LETTER SA
ENCODING 9031
SWIDTH 1000 0
DWIDTH 16 0
BBX 14 6 2 6
BITMAP
FF1C
7E0C
838C
F84C
063C
000C
ENDCHAR
STARTCHAR TIBETAN SUBJOINED LETTER HA
ENCODING 9032
SWIDTH 1000 0
DWIDTH 16 0
BBX 12 7 4 5
BITMAP
FFE0
4000
FBF0
0C30
0460
0080
0100
ENDCHAR
STARTCHAR TIBETAN SUBJOINED LETTER A
ENCODING 9033
SWIDTH 1000 0
DWIDTH 16 0
BBX 16 6 0 6
BITMAP
EFE7
87C3
8E73
811B
7E07
0003
ENDCHAR
STARTCHAR TIBETAN SUBJOINED LETTER KSSA
ENCODING 9034
SWIDTH 1000 0
DWIDTH 16 0
BBX 14 9 2 3
BITMAP
7FFC
310C
C10C
010C
7F04
4184
7EA0
5840
4080
ENDCHAR
STARTCHAR char9035
ENCODING 9035
SWIDTH 1000 0
DWIDTH 16 0
BBX 14 15 1 0
BITMAP
FFFC
FFFC
FFFC
FFFC
FFFC
FFFC
FFFC
FFFC
FFFC
FFFC
FFFC
FFFC
FFFC
FFFC
FFFC
ENDCHAR
STARTCHAR char9036
ENCODING 9036
SWIDTH 1000 0
DWIDTH 16 0
BBX 14 15 1 0
BITMAP
FFFC
FFFC
FFFC
FFFC
FFFC
FFFC
FFFC
FFFC
FFFC
FFFC
FFFC
FFFC
FFFC
FFFC
FFFC
ENDCHAR
STARTCHAR char9037
ENCODING 9037
SWIDTH 1000 0
DWIDTH 16 0
BBX 14 15 1 0
BITMAP
FFFC
FFFC
FFFC
FFFC
FFFC
FFFC
FFFC
FFFC
FFFC
FFFC
FFFC
FFFC
FFFC
FFFC
FFFC
ENDCHAR
STARTCHAR char9038
ENCODING 9038
SWIDTH 1000 0
DWIDTH 16 0
BBX 14 15 1 0
BITMAP
FFFC
FFFC
FFFC
FFFC
FFFC
FFFC
FFFC
FFFC
FFFC
FFFC
FFFC
FFFC
FFFC
FFFC
FFFC
ENDCHAR
STARTCHAR char9039
ENCODING 9039
SWIDTH 1000 0
DWIDTH 16 0
BBX 14 15 1 0
BITMAP
FFFC
FFFC
FFFC
FFFC
FFFC
FFFC
FFFC
FFFC
FFFC
FFFC
FFFC
FFFC
FFFC
FFFC
FFFC
ENDCHAR
STARTCHAR TIBETAN SUPERSCRIBED LETTER RA
ENCODING 9040
SWIDTH 1000 0
DWIDTH 16 0
BBX 9 3 7 9
BITMAP
FF80
0800
0800
ENDCHAR
STARTCHAR TIBETAN SUBJOINED LETTER HYA
ENCODING 9041
SWIDTH 1000 0
DWIDTH 16 0
BBX 16 10 0 2
BITMAP
07FC
0400
08F8
1F04
0184
0008
3FF0
1801
0F0E
01F0
ENDCHAR
STARTCHAR char9042 NYI ZLA LEFT
ENCODING 9042
SWIDTH 1000 0
DWIDTH 16 0
BBX 8 6 8 6
BITMAP
70
0E
03
F0
1C
03
ENDCHAR
STARTCHAR char9043 NYI ZLA RIGHT
ENCODING 9043
SWIDTH 1000 0
DWIDTH 16 0
BBX 16 9 0 3
BITMAP
00F8
030E
C303
31E3
0C0C
C3F0
3007
0E18
03E0
ENDCHAR
STARTCHAR RESERVED
ENCODING 9044
SWIDTH 1000 0
DWIDTH 16 0
BBX 0 0 0 0
BITMAP
ENDCHAR
STARTCHAR KWA
ENCODING 9249
SWIDTH 1000 0
DWIDTH 16 0
BBX 16 11 0 1
BITMAP
3FFF
0882
08C2
1042
2042
0042
0002
0002
000D
0019
0007
ENDCHAR
STARTCHAR KHWA
ENCODING 9250
SWIDTH 1000 0
DWIDTH 16 0
BBX 15 12 1 0
BITMAP
7FFE
8106
8206
8206
87E2
801A
8006
8002
8006
800A
801A
0006
ENDCHAR
STARTCHAR GWA
ENCODING 9251
SWIDTH 1000 0
DWIDTH 16 0
BBX 16 11 0 1
BITMAP
3FFF
10C2
2042
3042
0F42
00C2
0002
0002
000D
0019
0007
ENDCHAR
STARTCHAR CWA
ENCODING 9252
SWIDTH 1000 0
DWIDTH 16 0
BBX 16 11 0 1
BITMAP
01FF
0010
0010
05FC
0203
0181
007E
0001
000F
0019
0007
ENDCHAR
STARTCHAR NYWA
ENCODING 9253
SWIDTH 1000 0
DWIDTH 16 0
BBX 16 11 0 1
BITMAP
00FE
0306
077E
0087
01C3
0004
0008
0070
0090
01D0
0030
ENDCHAR
STARTCHAR TWA
ENCODING 9254
SWIDTH 1000 0
DWIDTH 16 0
BBX 16 11 0 1
BITMAP
07FF
0600
027E
0387
0106
000C
0010
0060
01A0
03A0
0060
ENDCHAR
STARTCHAR DWA
ENCODING 9255
SWIDTH 1000 0
DWIDTH 16 0
BBX 16 11 0 1
BITMAP
07FF
0300
0200
07FC
0007
0001
0001
0001
000F
001D
0003
ENDCHAR
STARTCHAR TSWA
ENCODING 9256
SWIDTH 1000 0
DWIDTH 16 0
BBX 13 13 3 1
BITMAP
0018
0060
3FE0
0200
0200
8780
7860
3060
0F80
0020
01E0
07A0
00E0
ENDCHAR
STARTCHAR TSWA
ENCODING 9257
SWIDTH 1000 0
DWIDTH 16 0
BBX 14 13 2 1
BITMAP
000C
0030
7FF0
0200
0200
3FF0
C208
C308
3CF0
0010
00F0
0390
0070
ENDCHAR
STARTCHAR ZHWA
ENCODING 9258
SWIDTH 1000 0
DWIDTH 16 0
BBX 16 11 0 1
BITMAP
01FE
0603
08FE
088E
0886
0CF9
0401
0001
000F
001D
0003
ENDCHAR
STARTCHAR ZWA
ENCODING 9259
SWIDTH 1000 0
DWIDTH 16 0
BBX 16 11 0 1
BITMAP
07FF
0003
01FF
0001
0001
07F1
000F
0001
000F
001D
0003
ENDCHAR
STARTCHAR RWA
ENCODING 9260
SWIDTH 1000 0
DWIDTH 16 0
BBX 16 11 0 1
BITMAP
1FFC
0180
0080
1FE0
003C
0006
0002
0001
000F
003D
0007
ENDCHAR
STARTCHAR LWA
ENCODING 9261
SWIDTH 1000 0
DWIDTH 16 0
BBX 16 11 0 1
BITMAP
1FC7
20C3
40C3
8183
C7E1
4039
0007
0001
000F
0019
0007
ENDCHAR
STARTCHAR SHWA
ENCODING 9262
SWIDTH 1000 0
DWIDTH 16 0
BBX 16 11 0 1
BITMAP
01FF
0206
0406
0BFE
3C06
0302
0102
0002
000E
003A
0006
ENDCHAR
STARTCHAR SWA
ENCODING 9263
SWIDTH 1000 0
DWIDTH 16 0
BBX 16 11 0 1
BITMAP
0FC3
0DC3
0861
1C11
038D
0043
0001
0001
000F
001D
0003
ENDCHAR
STARTCHAR HWA
ENCODING 9264
SWIDTH 1000 0
DWIDTH 16 0
BBX 16 11 0 1
BITMAP
07FF
0200
047E
098F
0FC3
0026
000C
0030
00D0
03D0
0070
ENDCHAR
STARTCHAR KYA
ENCODING 9280
SWIDTH 1000 0
DWIDTH 16 0
BBX 16 11 0 1
BITMAP
7FFE
1104
1184
2084
4084
0084
0004
0004
3FFC
1C03
03FC
ENDCHAR
STARTCHAR KHYA
ENCODING 9281
SWIDTH 1000 0
DWIDTH 16 0
BBX 16 13 0 -1
BITMAP
7FFE
8306
8206
8206
87C6
803E
8006
8002
8FFD
8303
80FC
8000
8000
ENDCHAR
STARTCHAR GYA
ENCODING 9282
SWIDTH 1000 0
DWIDTH 16 0
BBX 16 11 0 1
BITMAP
FFFC
610C
410C
810C
FD0C
0304
0004
380C
37F2
0E0C
03F0
ENDCHAR
STARTCHAR PYA
ENCODING 9283
SWIDTH 1000 0
DWIDTH 16 0
BBX 16 11 0 1
BITMAP
1F8E
0C04
0804
1004
1FC4
0034
000C
0004
3FFC
1C03
03FC
ENDCHAR
STARTCHAR PHYA
ENCODING 9284
SWIDTH 1000 0
DWIDTH 16 0
BBX 16 11 0 1
BITMAP
1F8E
0C04
081C
10E4
1FC4
0034
000C
0004
3FFC
1C03
03FC
ENDCHAR
STARTCHAR BYA
ENCODING 9285
SWIDTH 1000 0
DWIDTH 16 0
BBX 16 11 0 1
BITMAP
1FFE
0C04
0804
1004
1FC4
0034
000C
0004
3FFC
1C03
03FC
ENDCHAR
STARTCHAR MYA
ENCODING 9286
SWIDTH 1000 0
DWIDTH 16 0
BBX 16 11 0 1
BITMAP
3F8E
0604
0204
3FC4
20A4
3F9C
0004
0004
3FFC
1C03
03FC
ENDCHAR
STARTCHAR PHYWA
ENCODING 9287
SWIDTH 1000 0
DWIDTH 16 0
BBX 16 15 0 -3
BITMAP
1F8E
0C04
081C
10E4
1FC4
0034
000C
0004
3FFC
1C03
03FC
0030
00D0
01D0
0030
ENDCHAR
STARTCHAR KRA
ENCODING 9296
SWIDTH 1000 0
DWIDTH 16 0
BBX 16 11 0 1
BITMAP
3FFF
0886
08C2
1042
2042
0042
0002
0002
0FE2
003E
0002
ENDCHAR
STARTCHAR KHRA
ENCODING 9297
SWIDTH 1000 0
DWIDTH 16 0
BBX 16 11 0 1
BITMAP
3FFF
4083
4103
4103
43F1
400D
4003
43E1
4039
4005
4003
ENDCHAR
STARTCHAR GRA
ENCODING 9298
SWIDTH 1000 0
DWIDTH 16 0
BBX 16 11 0 1
BITMAP
3FFF
10C2
2042
3C42
0742
00C2
0002
0002
0FE2
003E
0002
ENDCHAR
STARTCHAR TRA
ENCODING 9299
SWIDTH 1000 0
DWIDTH 16 0
BBX 16 11 0 1
BITMAP
07FE
0600
027E
0387
0102
000C
0010
0020
0FE0
0018
0004
ENDCHAR
STARTCHAR THRA
ENCODING 9300
SWIDTH 1000 0
DWIDTH 16 0
BBX 16 11 0 1
BITMAP
07FF
0401
03FF
0201
0401
07F1
000F
0001
0FF1
001D
0003
ENDCHAR
STARTCHAR DRA
ENCODING 9301
SWIDTH 1000 0
DWIDTH 16 0
BBX 16 11 0 1
BITMAP
0FFE
0600
0C00
0800
0FE0
0038
000C
0006
0FE2
001D
0003
ENDCHAR
STARTCHAR PRA
ENCODING 9302
SWIDTH 1000 0
DWIDTH 16 0
BBX 16 11 0 1
BITMAP
0FC7
0602
0C02
0802
0FE2
001A
0006
0002
0FE2
003A
0006
ENDCHAR
STARTCHAR PHRA
ENCODING 9303
SWIDTH 1000 0
DWIDTH 16 0
BBX 16 11 0 1
BITMAP
0FC7
0602
0C0E
0872
0FE2
001A
0006
0002
0FE2
003A
0006
ENDCHAR
STARTCHAR BRA
ENCODING 9304
SWIDTH 1000 0
DWIDTH 16 0
BBX 16 11 0 1
BITMAP
0FFF
0602
0402
0802
0FE2
001A
0006
0002
0FE2
003A
0006
ENDCHAR
STARTCHAR MRA
ENCODING 9305
SWIDTH 1000 0
DWIDTH 16 0
BBX 16 11 0 1
BITMAP
0F87
0302
0102
0FC2
107A
0F8E
0006
0002
0FE2
003A
0006
ENDCHAR
STARTCHAR SHRA
ENCODING 9306
SWIDTH 1000 0
DWIDTH 16 0
BBX 16 11 0 1
BITMAP
01FF
0207
0407
0BFF
3C03
0303
0103
0003
1FE3
003F
0003
ENDCHAR
STARTCHAR SRA
ENCODING 9307
SWIDTH 1000 0
DWIDTH 16 0
BBX 16 11 0 1
BITMAP
0FC3
0D83
1063
1E11
038D
0045
0003
0001
0FF1
001D
0003
ENDCHAR
STARTCHAR HRA
ENCODING 9308
SWIDTH 1000 0
DWIDTH 16 0
BBX 16 11 0 1
BITMAP
07FF
0200
047E
088F
0FC3
0026
000C
0010
07F0
000C
0002
ENDCHAR
STARTCHAR JRA
ENCODING 9309
SWIDTH 1000 0
DWIDTH 16 0
BBX 16 9 0 3
BITMAP
07FE
0300
0200
07FC
0400
07FC
0002
07F9
0007
ENDCHAR
STARTCHAR DZRA
ENCODING 9310
SWIDTH 1000 0
DWIDTH 16 0
BBX 14 11 2 3
BITMAP
003C
0020
7FE0
6000
4000
BF00
8000
FF80
0040
FF20
00E0
ENDCHAR
STARTCHAR GRWA
ENCODING 9311
SWIDTH 1000 0
DWIDTH 16 0
BBX 16 14 0 -2
BITMAP
3FFF
10C3
2043
3C43
0743
00C1
0001
0001
0FE1
003D
0003
001D
0039
0007
ENDCHAR
STARTCHAR KLA
ENCODING 9312
SWIDTH 1000 0
DWIDTH 16 0
BBX 16 13 0 -1
BITMAP
3FFF
0882
08C2
1042
2042
0042
0002
0783
08C2
10C2
3102
13FA
0006
ENDCHAR
STARTCHAR GLA
ENCODING 9313
SWIDTH 1000 0
DWIDTH 16 0
BBX 16 13 0 -1
BITMAP
3FFF
10C2
2042
3C42
0742
00C2
0002
0787
08C2
10C2
3102
23FA
0006
ENDCHAR
STARTCHAR BLA
ENCODING 9314
SWIDTH 1000 0
DWIDTH 16 0
BBX 16 13 0 -1
BITMAP
0FFF
0602
0402
0802
0FE2
001A
0006
0783
08C2
1082
3102
13FA
0006
ENDCHAR
STARTCHAR ZLA
ENCODING 9315
SWIDTH 1000 0
DWIDTH 16 0
BBX 16 13 0 -1
BITMAP
07FF
0003
01FF
0001
0001
07F1
000F
03C3
0CC3
1041
1081
11F9
0007
ENDCHAR
STARTCHAR RLA
ENCODING 9316
SWIDTH 1000 0
DWIDTH 16 0
BBX 16 13 0 -1
BITMAP
3FF8
0100
0100
3FC0
0078
000C
0006
0787
08C2
1082
3102
23F2
000E
ENDCHAR
STARTCHAR SLA
ENCODING 9317
SWIDTH 1000 0
DWIDTH 16 0
BBX 16 13 0 -1
BITMAP
0FC3
0DC3
0861
1C11
038D
0043
0001
03C3
0C63
0841
1081
11F9
0007
ENDCHAR
STARTCHAR RKA
ENCODING 9505
SWIDTH 1000 0
DWIDTH 16 0
BBX 16 11 0 1
BITMAP
0FF8
00C0
0040
3FFF
08C2
1842
2042
0042
0042
0002
0002
ENDCHAR
STARTCHAR RGA
ENCODING 9506
SWIDTH 1000 0
DWIDTH 16 0
BBX 16 11 0 1
BITMAP
0FF8
0080
0040
1FFF
1042
2042
3E42
01C2
0042
0002
0002
ENDCHAR
STARTCHAR RNGA
ENCODING 9507
SWIDTH 1000 0
DWIDTH 16 0
BBX 16 10 0 2
BITMAP
07FC
0060
0020
0FFF
0800
1000
1F80
00F0
000C
0002
ENDCHAR
STARTCHAR RJA
ENCODING 9508
SWIDTH 1000 0
DWIDTH 16 0
BBX 16 10 0 2
BITMAP
01FF
0018
0008
03FE
0200
03FC
0400
0400
07FE
0001
ENDCHAR
STARTCHAR RNYA
ENCODING 9509
SWIDTH 1000 0
DWIDTH 16 0
BBX 16 14 0 -2
BITMAP
1FFC
0080
0080
1FE0
003C
0006
0002
07F0
1830
33FC
040C
070C
0010
0020
ENDCHAR
STARTCHAR RTA
ENCODING 9510
SWIDTH 1000 0
DWIDTH 16 0
BBX 16 11 0 1
BITMAP
03FE
0010
0010
07FE
0200
02FE
0103
0102
0004
0018
0020
ENDCHAR
STARTCHAR RDA
ENCODING 9511
SWIDTH 1000 0
DWIDTH 16 0
BBX 16 11 0 1
BITMAP
07FC
0040
0020
07FE
0400
0400
0FC0
0030
000C
0006
0003
ENDCHAR
STARTCHAR RNA
ENCODING 9512
SWIDTH 1000 0
DWIDTH 16 0
BBX 16 11 0 1
BITMAP
03F8
0040
0040
03FE
0020
03F0
040C
060E
03F2
0002
0002
ENDCHAR
STARTCHAR RBA
ENCODING 9513
SWIDTH 1000 0
DWIDTH 16 0
BBX 16 10 0 2
BITMAP
07FE
0060
0020
0FFE
0402
0802
0F02
01F2
000E
0002
ENDCHAR
STARTCHAR RMA
ENCODING 9514
SWIDTH 1000 0
DWIDTH 16 0
BBX 16 10 0 2
BITMAP
0FC0
0200
0200
0F87
0102
0FC2
1072
105A
0F8E
0002
ENDCHAR
STARTCHAR RTSA
ENCODING 9515
SWIDTH 1000 0
DWIDTH 16 0
BBX 16 10 0 2
BITMAP
0FF0
0102
010E
0FF8
0080
0080
2FF0
1808
0418
03E0
ENDCHAR
STARTCHAR RDZA
ENCODING 9516
SWIDTH 1000 0
DWIDTH 16 0
BBX 16 10 0 2
BITMAP
0FFC
00C1
0047
1FFC
0800
1FF0
1000
1000
1FF8
0004
ENDCHAR
STARTCHAR RGWA
ENCODING 9517
SWIDTH 1000 0
DWIDTH 16 0
BBX 16 14 0 -2
BITMAP
0FF8
0080
0040
3FFF
1043
2043
3E43
03C3
0043
0001
0003
000D
003D
0003
ENDCHAR
STARTCHAR RTSWA
ENCODING 9518
SWIDTH 1000 0
DWIDTH 16 0
BBX 16 13 0 -1
BITMAP
0FF0
0102
010E
0FF8
0080
0080
2FF0
1808
0418
03E8
0038
01E8
0018
ENDCHAR
STARTCHAR RKYA
ENCODING 9520
SWIDTH 1000 0
DWIDTH 16 0
BBX 16 14 0 -2
BITMAP
3FF0
0100
0080
7FFE
1184
3084
4084
0084
0084
0004
0004
3FF9
1E06
01F8
ENDCHAR
STARTCHAR RGYA
ENCODING 9521
SWIDTH 1000 0
DWIDTH 16 0
BBX 16 14 0 -2
BITMAP
3FF0
0100
0080
7FFE
4184
4084
7884
0784
0084
0004
0004
3FF9
1E06
01F8
ENDCHAR
STARTCHAR RMYA
ENCODING 9522
SWIDTH 1000 0
DWIDTH 16 0
BBX 14 14 2 -2
BITMAP
7C00
1000
1000
7C38
0810
7E10
8390
82D0
7C70
0010
0010
FFE4
3818
07E0
ENDCHAR
STARTCHAR LKA
ENCODING 9536
SWIDTH 1000 0
DWIDTH 16 0
BBX 16 14 0 -2
BITMAP
1FC7
20C3
40C3
8183
C7E1
4039
0007
0FFF
0243
0463
0823
1021
0021
0001
ENDCHAR
STARTCHAR LGA
ENCODING 9537
SWIDTH 1000 0
DWIDTH 16 0
BBX 16 14 0 -2
BITMAP
1FC7
20C3
40C3
8183
C7E1
4039
0007
1FFF
0843
1043
1843
07C1
0041
0001
ENDCHAR
STARTCHAR LNGA
ENCODING 9538
SWIDTH 1000 0
DWIDTH 16 0
BBX 16 13 0 -1
BITMAP
1FC7
20E3
4043
8183
C7F3
401B
0007
0FFF
0400
0800
0800
0FF0
000C
ENDCHAR
STARTCHAR LCA
ENCODING 9539
SWIDTH 1000 0
DWIDTH 16 0
BBX 16 14 0 -2
BITMAP
1FC3
20C3
40C3
8183
C7F1
401D
0003
07FC
00C0
0040
0FF0
040C
0308
00F0
ENDCHAR
STARTCHAR LJA
ENCODING 9540
SWIDTH 1000 0
DWIDTH 16 0
BBX 16 13 0 -1
BITMAP
1FC7
20E3
4043
8183
C7F3
401B
0007
03FE
0100
0200
03FC
0200
07FC
ENDCHAR
STARTCHAR LTA
ENCODING 9541
SWIDTH 1000 0
DWIDTH 16 0
BBX 16 14 0 -2
BITMAP
1FC3
20E3
4043
8181
C7F1
401D
0003
07FE
0600
027C
038E
0104
0018
0010
ENDCHAR
STARTCHAR LDA
ENCODING 9542
SWIDTH 1000 0
DWIDTH 16 0
BBX 16 14 0 -2
BITMAP
1F87
20C3
4083
8103
C7E3
403D
0003
03FF
0300
0200
07F8
000E
0003
0001
ENDCHAR
STARTCHAR LPA
ENCODING 9543
SWIDTH 1000 0
DWIDTH 16 0
BBX 16 13 0 -1
BITMAP
1FC7
20E3
4043
8183
C7F3
401B
0007
07E7
0303
0603
0403
07FB
0007
ENDCHAR
STARTCHAR LBA
ENCODING 9544
SWIDTH 1000 0
DWIDTH 16 0
BBX 16 13 0 -1
BITMAP
1FC7
20E3
4043
8183
C7F3
401B
0007
07FF
0303
0603
0403
07FB
0007
ENDCHAR
STARTCHAR LHA
ENCODING 9545
SWIDTH 1000 0
DWIDTH 16 0
BBX 16 14 0 -2
BITMAP
1FC7
20E3
4043
8183
C7F3
401B
0007
0FF8
0800
11F0
3E18
0308
0010
0020
ENDCHAR
STARTCHAR SKA
ENCODING 9552
SWIDTH 1000 0
DWIDTH 16 0
BBX 16 14 0 -2
BITMAP
1F86
1B86
10C2
3822
071A
0086
0002
1FFF
04C2
0442
1842
1042
0042
0002
ENDCHAR
STARTCHAR SGA
ENCODING 9553
SWIDTH 1000 0
DWIDTH 16 0
BBX 16 14 0 -2
BITMAP
1F86
1B86
10C2
3822
071A
0086
0002
3FFF
10C2
20C2
3042
0F42
00C2
0002
ENDCHAR
STARTCHAR SNGA
ENCODING 9554
SWIDTH 1000 0
DWIDTH 16 0
BBX 16 13 0 -1
BITMAP
1F87
1B03
20C3
3C33
071B
0087
0003
0FFE
0800
0800
1000
1FF0
000C
ENDCHAR
STARTCHAR SNYA
ENCODING 9555
SWIDTH 1000 0
DWIDTH 16 0
BBX 16 14 0 -2
BITMAP
1F87
1B86
20C2
3C32
071A
0086
0002
03F8
0C08
08FE
0103
0386
000C
0010
ENDCHAR
STARTCHAR STA
ENCODING 9556
SWIDTH 1000 0
DWIDTH 16 0
BBX 16 14 0 -2
BITMAP
0FC3
0D83
1061
1E11
038D
0043
0001
03FE
0200
02FC
030E
0104
0018
0020
ENDCHAR
STARTCHAR SDA
ENCODING 9557
SWIDTH 1000 0
DWIDTH 16 0
BBX 16 14 0 -2
BITMAP
1F87
1B03
20C3
3C33
071B
0087
0003
07FF
0200
0400
0FF8
000E
0002
0003
ENDCHAR
STARTCHAR SNA
ENCODING 9558
SWIDTH 1000 0
DWIDTH 16 0
BBX 16 14 0 -2
BITMAP
1F87
1B83
20C3
3C33
071B
0087
0003
03FE
0020
01F0
060C
061E
01F2
0003
ENDCHAR
STARTCHAR SPA
ENCODING 9559
SWIDTH 1000 0
DWIDTH 16 0
BBX 16 13 0 -1
BITMAP
1F87
1B83
20C3
3C33
071B
0087
0003
07C7
0203
0403
0403
07FB
0007
ENDCHAR
STARTCHAR SBA
ENCODING 9560
SWIDTH 1000 0
DWIDTH 16 0
BBX 16 13 0 -1
BITMAP
1F87
1B83
20C3
3C33
071B
0087
0003
07FF
0203
0403
0403
0FF1
000F
ENDCHAR
STARTCHAR SMA
ENCODING 9561
SWIDTH 1000 0
DWIDTH 16 0
BBX 16 13 0 -1
BITMAP
1F87
1B83
20E3
3C33
071B
0087
0003
0FC7
0103
0FC3
1033
0FCB
0007
ENDCHAR
STARTCHAR STSA
ENCODING 9562
SWIDTH 1000 0
DWIDTH 16 0
BBX 16 14 0 -2
BITMAP
1F87
1B83
20C3
3C33
070B
0087
0003
0FF8
0086
0081
2FE0
1818
0610
01E0
ENDCHAR
STARTCHAR SKYA
ENCODING 9568
SWIDTH 1000 0
DWIDTH 16 0
BBX 14 15 2 -3
BITMAP
7E18
6E18
8198
F848
0628
0118
7FF8
1318
2108
E108
0108
0008
3FF4
0E18
03E0
ENDCHAR
STARTCHAR SGYA
ENCODING 9569
SWIDTH 1000 0
DWIDTH 16 0
BBX 14 15 2 -3
BITMAP
7E18
6E18
4198
F848
0628
0118
FFF8
4308
8108
FD08
0308
0008
3FF4
0E18
03E0
ENDCHAR
STARTCHAR SPYA
ENCODING 9570
SWIDTH 1000 0
DWIDTH 16 0
BBX 14 15 2 -3
BITMAP
7E18
6E18
8198
F848
0628
0118
1F18
1818
1008
3FC8
0038
0008
3FF4
0E18
03E0
ENDCHAR
STARTCHAR SBYA
ENCODING 9571
SWIDTH 1000 0
DWIDTH 16 0
BBX 14 15 2 -3
BITMAP
7E18
6E18
8198
F848
0628
0118
1FF8
1818
1008
3FC8
0038
0008
3FF4
0E18
03E0
ENDCHAR
STARTCHAR SMYA
ENCODING 9572
SWIDTH 1000 0
DWIDTH 16 0
BBX 14 15 2 -3
BITMAP
7E18
6E18
8198
F848
0628
0118
3F18
0418
3F08
20E8
3F18
0008
3FF4
0E18
03E0
ENDCHAR
STARTCHAR SKRA
ENCODING 9584
SWIDTH 1000 0
DWIDTH 16 0
BBX 16 14 0 -2
BITMAP
1F87
1383
2063
3E13
018F
0043
1FFF
04C3
0843
3043
0043
0FE3
007B
0007
ENDCHAR
STARTCHAR SGRA
ENCODING 9585
SWIDTH 1000 0
DWIDTH 16 0
BBX 16 14 0 -2
BITMAP
0FC3
09C3
1031
1F09
00C7
0023
1FFF
0861
1061
1FE1
0061
07F1
003D
0003
ENDCHAR
STARTCHAR SNRA
ENCODING 9586
SWIDTH 1000 0
DWIDTH 16 0
BBX 16 14 0 -2
BITMAP
1F87
1B83
2063
3E13
018F
0043
03FE
0060
01F8
020C
01F6
0002
03F2
000F
ENDCHAR
STARTCHAR SPRA
ENCODING 9587
SWIDTH 1000 0
DWIDTH 16 0
BBX 16 14 0 -2
BITMAP
0FC3
09C3
1033
1F09
00C5
0023
03E3
0203
0201
07F9
0007
07F1
003D
0003
ENDCHAR
STARTCHAR SBRA
ENCODING 9588
SWIDTH 1000 0
DWIDTH 16 0
BBX 16 14 0 -2
BITMAP
0FC3
09C3
1033
1F09
00C5
0023
03FF
0203
0201
07F9
0007
07F1
003D
0003
ENDCHAR
STARTCHAR SMRA
ENCODING 9589
SWIDTH 1000 0
DWIDTH 16 0
BBX 16 14 0 -2
BITMAP
0FC3
0DC3
1033
1F09
00C5
0023
03E3
0083
07E1
041D
07E3
07F1
003D
0003
ENDCHAR
ENDFONT
